<svg width="53" height="53" viewBox="0 0 53 53" fill="none" xmlns="http://www.w3.org/2000/svg">
<path d="M49.011 18.312V8.62714H39.3262V11.8554H23.1848V7.013C23.1835 6.1572 22.843 5.33682 22.2379 4.73168C21.6327 4.12654 20.8123 3.78601 19.9565 3.78473H7.04346C6.18766 3.78601 5.36728 4.12654 4.76214 4.73168C4.157 5.33682 3.81647 6.1572 3.81519 7.013V19.9261C3.81647 20.7819 4.157 21.6023 4.76214 22.2074C5.36728 22.8125 6.18766 23.1531 7.04346 23.1544H19.9565C20.8123 23.1531 21.6327 22.8125 22.2379 22.2074C22.843 21.6023 23.1835 20.7819 23.1848 19.9261V15.0837C24.4687 15.085 25.6996 15.5956 26.6075 16.5034C27.5153 17.4113 28.0259 18.6422 28.0272 19.9261V34.4533H18.3424V31.225H8.65759V40.9099H18.3424V37.6816H28.0272V40.9099C28.0285 41.7656 28.369 42.586 28.9742 43.1912C29.5793 43.7963 30.3997 44.1368 31.2555 44.1381H39.3262V47.3664H49.011V37.6816H39.3262V40.9099H31.2555V29.6109H39.3262V32.8392H49.011V23.1544H39.3262V26.3826H31.2555V19.9261C31.2498 18.1742 30.6685 16.4728 29.601 15.0837H39.3262V18.312H49.011ZM7.04346 19.9261V7.013H19.9565V19.9261H7.04346ZM15.1141 37.6816H11.8859V34.4533H15.1141V37.6816ZM42.5544 40.9099H45.7827V44.1381H42.5544V40.9099ZM42.5544 26.3826H45.7827V29.6109H42.5544V26.3826ZM42.5544 11.8554H45.7827V15.0837H42.5544V11.8554Z" fill="black"/>
</svg>
