<svg width="1280" height="903" viewBox="0 0 1280 903" fill="none" xmlns="http://www.w3.org/2000/svg">
<g opacity="0.1">
<line y1="-0.5" x2="928.005" y2="-0.5" transform="matrix(0.0032327 0.999995 -0.999992 0.00402174 36 -18)" stroke="black" stroke-opacity="0.5"/>
<line y1="-0.5" x2="928.005" y2="-0.5" transform="matrix(0.0032327 0.999995 -0.999992 0.00402174 109 -18)" stroke="black" stroke-opacity="0.5"/>
<line y1="-0.5" x2="928.005" y2="-0.5" transform="matrix(0.0032327 0.999995 -0.999992 0.00402174 182 -18)" stroke="black" stroke-opacity="0.5"/>
<line y1="-0.5" x2="928.005" y2="-0.5" transform="matrix(0.0032327 0.999995 -0.999992 0.00402174 255 -18)" stroke="black" stroke-opacity="0.5"/>
<line y1="-0.5" x2="928.005" y2="-0.5" transform="matrix(0.0032327 0.999995 -0.999992 0.00402174 328 -18)" stroke="black" stroke-opacity="0.5"/>
<line y1="-0.5" x2="928.005" y2="-0.5" transform="matrix(0.0032327 0.999995 -0.999992 0.00402174 401 -18)" stroke="black" stroke-opacity="0.5"/>
<line y1="-0.5" x2="928.005" y2="-0.5" transform="matrix(0.0032327 0.999995 -0.999992 0.00402174 474 -18)" stroke="black" stroke-opacity="0.5"/>
<line y1="-0.5" x2="928.005" y2="-0.5" transform="matrix(0.0032327 0.999995 -0.999992 0.00402174 547 -18)" stroke="black" stroke-opacity="0.5"/>
<line y1="-0.5" x2="928.005" y2="-0.5" transform="matrix(0.0032327 0.999995 -0.999992 0.00402174 620 -18)" stroke="black" stroke-opacity="0.5"/>
<line y1="-0.5" x2="928.005" y2="-0.5" transform="matrix(0.0032327 0.999995 -0.999992 0.00402174 693 -18)" stroke="black" stroke-opacity="0.5"/>
<line y1="-0.5" x2="928.005" y2="-0.5" transform="matrix(0.0032327 0.999995 -0.999992 0.00402174 766 -18)" stroke="black" stroke-opacity="0.5"/>
<line y1="-0.5" x2="928.005" y2="-0.5" transform="matrix(0.0032327 0.999995 -0.999992 0.00402174 839 -18)" stroke="black" stroke-opacity="0.5"/>
<line y1="-0.5" x2="928.005" y2="-0.5" transform="matrix(0.0032327 0.999995 -0.999992 0.00402174 912 -18)" stroke="black" stroke-opacity="0.5"/>
<line y1="-0.5" x2="928.005" y2="-0.5" transform="matrix(0.0032327 0.999995 -0.999992 0.00402174 985 -18)" stroke="black" stroke-opacity="0.5"/>
<line y1="-0.5" x2="928.005" y2="-0.5" transform="matrix(0.0032327 0.999995 -0.999992 0.00402174 1058 -18)" stroke="black" stroke-opacity="0.5"/>
<line y1="-0.5" x2="928.005" y2="-0.5" transform="matrix(0.0032327 0.999995 -0.999992 0.00402174 1131 -18)" stroke="black" stroke-opacity="0.5"/>
<line y1="-0.5" x2="928.005" y2="-0.5" transform="matrix(0.0032327 0.999995 -0.999992 0.00402174 1204 -18)" stroke="black" stroke-opacity="0.5"/>
<line y1="-0.5" x2="928.005" y2="-0.5" transform="matrix(0.0032327 0.999995 -0.999992 0.00402174 1277 -18)" stroke="black" stroke-opacity="0.5"/>
<line y1="-0.5" x2="1314" y2="-0.5" transform="matrix(-0.999997 0.00228307 -0.00569453 -0.999984 1305 67.9999)" stroke="black" stroke-opacity="0.5"/>
<line y1="-0.5" x2="1314" y2="-0.5" transform="matrix(-0.999997 0.00228307 -0.00569453 -0.999984 1305 141)" stroke="black" stroke-opacity="0.5"/>
<line y1="-0.5" x2="1314" y2="-0.5" transform="matrix(-0.999997 0.00228307 -0.00569453 -0.999984 1305 214)" stroke="black" stroke-opacity="0.5"/>
<line y1="-0.5" x2="1314" y2="-0.5" transform="matrix(-0.999997 0.00228307 -0.00569453 -0.999984 1305 287)" stroke="black" stroke-opacity="0.5"/>
<line y1="-0.5" x2="1314" y2="-0.5" transform="matrix(-0.999997 0.00228307 -0.00569453 -0.999984 1305 360)" stroke="black" stroke-opacity="0.5"/>
<line y1="-0.5" x2="1314" y2="-0.5" transform="matrix(-0.999997 0.00228307 -0.00569453 -0.999984 1305 433)" stroke="black" stroke-opacity="0.5"/>
<line y1="-0.5" x2="1314" y2="-0.5" transform="matrix(-0.999997 0.00228307 -0.00569453 -0.999984 1305 506)" stroke="black" stroke-opacity="0.5"/>
<line y1="-0.5" x2="1314" y2="-0.5" transform="matrix(-0.999997 0.00228307 -0.00569453 -0.999984 1305 579)" stroke="black" stroke-opacity="0.5"/>
<line y1="-0.5" x2="1314" y2="-0.5" transform="matrix(-0.999997 0.00228307 -0.00569453 -0.999984 1305 651.999)" stroke="black" stroke-opacity="0.5"/>
<line y1="-0.5" x2="1314" y2="-0.5" transform="matrix(-0.999997 0.00228307 -0.00569453 -0.999984 1305 724.999)" stroke="black" stroke-opacity="0.5"/>
<line y1="-0.5" x2="1314" y2="-0.5" transform="matrix(-0.999997 0.00228307 -0.00569453 -0.999984 1305 797.999)" stroke="black" stroke-opacity="0.5"/>
<line y1="-0.5" x2="1314" y2="-0.5" transform="matrix(-0.999997 0.00228307 -0.00569453 -0.999984 1305 870.999)" stroke="black" stroke-opacity="0.5"/>
</g>
</svg>
