<svg width="55" height="55" viewBox="0 0 55 55" fill="none" xmlns="http://www.w3.org/2000/svg">
<path d="M16.1739 17.3935C22.3571 17.3935 27.3696 14.8872 27.3696 11.7956C27.3696 8.70405 22.3571 6.19781 16.1739 6.19781C9.99074 6.19781 4.97827 8.70405 4.97827 11.7956C4.97827 14.8872 9.99074 17.3935 16.1739 17.3935Z" stroke="black" stroke-width="4.47826" stroke-linecap="round" stroke-linejoin="round"/>
<path d="M4.97827 11.7957C4.97827 11.7957 4.97827 16.541 4.97827 19.6326C4.97827 22.7242 9.99073 25.2304 16.1739 25.2304C22.3571 25.2304 27.3696 22.7242 27.3696 19.6326C27.3696 17.8015 27.3696 11.7957 27.3696 11.7957" stroke="black" stroke-width="4.47826" stroke-linecap="round" stroke-linejoin="round"/>
<path d="M4.97827 19.6326C4.97827 19.6326 4.97827 24.378 4.97827 27.4696C4.97827 30.5611 9.99073 33.0674 16.1739 33.0674C22.3571 33.0674 27.3696 30.5611 27.3696 27.4696C27.3696 25.6384 27.3696 19.6326 27.3696 19.6326" stroke="black" stroke-width="4.47826" stroke-linecap="round" stroke-linejoin="round"/>
<path d="M4.97827 27.4696C4.97827 27.4696 4.97827 32.215 4.97827 35.3065C4.97827 38.3981 9.99073 40.9044 16.1739 40.9044C22.3571 40.9044 27.3696 38.3981 27.3696 35.3065C27.3696 33.4754 27.3696 27.4696 27.3696 27.4696" stroke="black" stroke-width="4.47826" stroke-linecap="round" stroke-linejoin="round"/>
<path d="M4.97827 35.3065C4.97827 35.3065 4.97827 40.0519 4.97827 43.1435C4.97827 46.235 9.99073 48.7413 16.1739 48.7413C22.3571 48.7413 27.3696 46.235 27.3696 43.1435C27.3696 41.3123 27.3696 35.3065 27.3696 35.3065" stroke="black" stroke-width="4.47826" stroke-linecap="round" stroke-linejoin="round"/>
<path d="M38.565 33.0674C44.7482 33.0674 49.7607 30.5612 49.7607 27.4696C49.7607 24.378 44.7482 21.8717 38.565 21.8717C32.3818 21.8717 27.3694 24.378 27.3694 27.4696C27.3694 30.5612 32.3818 33.0674 38.565 33.0674Z" stroke="black" stroke-width="4.47826" stroke-linecap="round" stroke-linejoin="round"/>
<path d="M27.3694 27.4696C27.3694 27.4696 27.3694 32.215 27.3694 35.3065C27.3694 38.3981 32.3819 40.9044 38.565 40.9044C44.7482 40.9044 49.7607 38.3981 49.7607 35.3065C49.7607 33.4754 49.7607 27.4696 49.7607 27.4696" stroke="black" stroke-width="4.47826" stroke-linecap="round" stroke-linejoin="round"/>
<path d="M27.3694 35.3065C27.3694 35.3065 27.3694 40.0519 27.3694 43.1435C27.3694 46.235 32.3819 48.7413 38.565 48.7413C44.7482 48.7413 49.7607 46.235 49.7607 43.1435C49.7607 41.3123 49.7607 35.3065 49.7607 35.3065" stroke="black" stroke-width="4.47826" stroke-linecap="round" stroke-linejoin="round"/>
</svg>
