<svg width="57" height="57" viewBox="0 0 57 57" fill="none" xmlns="http://www.w3.org/2000/svg">
<path d="M15.3842 51.6073H9.33829C8.27241 51.6073 7.38315 51.2509 6.67051 50.5383C5.95787 49.8257 5.60001 48.9364 5.59692 47.8705V41.8177H7.91069V47.8705C7.91069 48.2855 8.04412 48.6264 8.31097 48.8932C8.57783 49.1601 8.91949 49.2935 9.33597 49.2935H15.3842V51.6073ZM42.085 51.6073V49.2935H48.1355C48.5505 49.2935 48.8914 49.1601 49.1582 48.8932C49.4251 48.6264 49.5585 48.2855 49.5585 47.8705V41.8177H51.8723V47.8705C51.8723 48.9349 51.516 49.8234 50.8033 50.536C50.0907 51.2486 49.2014 51.6057 48.1355 51.6073H42.085ZM28.7346 41.7275C24.6115 41.7275 20.9071 40.5598 17.6216 38.2244C14.336 35.886 11.8557 32.6344 10.1805 28.4696C11.8557 24.3048 14.336 21.0532 17.6216 18.7147C20.9071 16.3794 24.6115 15.2117 28.7346 15.2117C32.8577 15.2117 36.5621 16.3802 39.8476 18.7171C43.1332 21.054 45.6135 24.3048 47.2887 28.4696C45.6135 32.6344 43.1332 35.886 39.8476 38.2244C36.5621 40.5598 32.8577 41.7275 28.7346 41.7275ZM28.7346 35.0962C30.5856 35.0962 32.1536 34.4545 33.4385 33.1712C34.7234 31.8878 35.3659 30.3206 35.3659 28.4696C35.3659 26.6186 34.7234 25.0506 33.4385 23.7657C32.1536 22.4808 30.5856 21.8391 28.7346 21.8406C26.8836 21.8422 25.3156 22.4839 24.0307 23.7657C22.7458 25.0475 22.1041 26.6155 22.1057 28.4696C22.1072 30.3237 22.7489 31.8917 24.0307 33.1735C25.3125 34.4553 26.8805 35.0978 28.7346 35.1008M28.7346 32.7871C27.533 32.7871 26.5134 32.3675 25.6758 31.5284C24.8382 30.6908 24.4194 29.6712 24.4194 28.4696C24.4194 27.268 24.8382 26.2484 25.6758 25.4108C26.5134 24.5732 27.533 24.1544 28.7346 24.1544C29.9362 24.1544 30.9558 24.5732 31.7934 25.4108C32.6325 26.2484 33.0521 27.268 33.0521 28.4696C33.0521 29.6712 32.6325 30.6908 31.7934 31.5284C30.9558 32.3675 29.9362 32.7871 28.7346 32.7871ZM5.59692 15.1191V9.07096C5.59692 8.00508 5.95402 7.11582 6.6682 6.40318C7.38238 5.69054 8.27164 5.33345 9.33597 5.33191H15.3842V7.64568H9.33597C8.91949 7.64568 8.57783 7.7791 8.31097 8.04596C8.04412 8.31281 7.91069 8.65448 7.91069 9.07096V15.1191H5.59692ZM49.5585 15.1191V9.07096C49.5585 8.65448 49.4251 8.31281 49.1582 8.04596C48.8914 7.7791 48.5505 7.64568 48.1355 7.64568H42.0827V5.33191H48.1355C49.1999 5.33191 50.0884 5.689 50.801 6.40318C51.5136 7.11737 51.8707 8.00662 51.8723 9.07096V15.1191H49.5585Z" fill="black"/>
</svg>
